<svg width="1161" height="1219" viewBox="0 0 1161 1219" fill="none" xmlns="http://www.w3.org/2000/svg">
<path d="M238.021 232.146C238.814 231.823 239.606 231.5 240.833 231.356C241.267 231.536 241.679 231.541 241.679 231.541L241.965 231.214C242.412 231.105 242.859 230.996 243.876 231.203C245.631 231.006 246.816 230.492 248 229.979C249.739 229.602 251.479 229.224 253.779 229.147C255.549 228.999 256.758 228.552 257.966 228.105C259.213 227.929 260.46 227.752 262.409 227.742C263.721 227.672 264.331 227.436 264.941 227.2C265.691 227.063 266.441 226.926 267.843 227.148C271.119 227.55 274.219 229.831 276.002 225.911C277.455 225.649 278.909 225.387 280.927 225.397C282.311 225.506 283.13 225.343 283.949 225.179C285.675 225.053 287.401 224.926 289.85 225.181C299.005 225.709 307.435 225.915 315.865 225.95C317.582 225.957 319.301 225.316 321.019 224.974C323.416 224.979 325.813 224.985 328.924 225.341C330.614 225.755 331.59 225.816 332.565 225.878C333.488 225.788 334.41 225.698 335.747 226.141C338.14 227.116 340.1 227.689 342.101 227.965C344.199 228.254 346.335 228.256 348.455 228.384C348.474 228.88 348.493 229.375 348.512 229.871C343.298 231.214 337.98 232.246 332.89 233.958C318.628 238.756 303.963 242.763 290.379 249.069C272.811 257.224 255.215 265.956 239.298 276.87C216.167 292.73 195.629 311.829 177.583 333.625C162.682 351.623 149.98 370.897 139.272 391.545C130.537 408.387 123.958 426.07 118.126 444.165C111.983 463.224 108.563 482.728 106.245 502.398C104.656 515.873 105.509 529.622 104.961 543.236C104.038 566.152 107.964 588.511 113.126 610.612C116.394 624.602 120.689 638.438 125.663 651.923C134.06 674.686 145.393 696.145 159.222 716.032C172.55 735.199 187.517 753.094 205.081 768.754C219.85 781.923 234.705 794.861 252.04 804.605C254.934 806.231 256.28 808.299 256.088 811.81C255.806 816.954 256.117 822.131 256.214 827.476C256.253 827.658 256.114 828.002 255.709 828.086C254.869 829.48 254.096 830.781 254.062 832.101C253.944 836.573 254.088 841.051 254.254 845.864C254.24 847.137 254.105 848.074 253.694 849.274C252.99 854.194 252.562 858.849 252.245 863.742C252.274 864.313 252.191 864.646 251.752 865.165C251.005 865.87 250.313 866.364 250.268 866.911C249.512 876.086 248.837 885.267 248.235 894.582C248.325 894.718 248.181 895.01 247.82 895.055C247.263 898.387 247.066 901.674 246.9 905.235C246.888 905.688 246.845 905.867 246.599 906.25C246.324 906.829 246.253 907.203 246.307 907.662C246.434 907.746 246.346 908.037 245.92 908.09C245.008 911.308 244.365 914.463 244.162 917.645C244.12 918.317 245.692 919.091 246.74 920.017C247.973 921.169 248.985 922.121 250.033 923.355C252.146 924.64 254.311 926.649 256.265 922.941C257.709 921.831 258.888 920.909 260.274 919.863C260.735 919.514 260.87 919.23 260.923 918.939C260.961 918.988 260.854 918.925 261.181 918.68C261.621 916.769 261.735 915.102 261.719 913.215C261.68 912.672 261.771 912.349 262.219 911.844C262.929 907.395 263.281 903.128 263.615 898.541C263.721 897.813 263.845 897.406 264.364 896.908C265.127 892.704 265.494 888.591 265.736 884.244C265.687 883.67 265.763 883.331 266.192 882.948C266.617 880.571 266.691 878.237 266.739 875.578C266.811 874.834 266.908 874.415 267.292 873.715C267.67 871.788 267.763 870.141 267.744 868.385C267.632 868.276 267.673 867.966 267.984 867.809C268.828 866.914 269.362 866.176 270.619 864.438C270.796 867.131 270.981 868.691 270.986 870.251C271.016 878.539 271.002 886.827 271 895.115C270.996 909.008 272.942 922.263 279.746 934.878C288.447 951.013 300.327 962.978 317.624 969.495C320.362 970.527 322.551 973.015 324.994 974.829C320.614 974.898 316.233 974.967 311.078 974.676C309.651 974.212 309 974.015 308.348 974.015C285.37 973.998 262.393 973.989 239.415 974.028C238.308 974.03 237.202 974.48 236.095 974.721C234.625 974.604 233.154 974.487 231.119 973.903C226.682 972.631 222.809 971.825 218.936 971.02C217.78 970.802 216.624 970.584 215.171 969.747C212.517 968.143 210.161 967.159 207.804 966.175C207.804 966.175 207.913 966.131 207.785 965.888C207.058 965.464 206.46 965.283 205.862 965.102C205.862 965.102 205.939 965.059 205.778 964.818C205.213 964.421 204.808 964.264 204.403 964.108C204.403 964.108 204.254 964.258 203.987 963.933C203.332 963.438 202.943 963.268 202.555 963.098C202.089 962.96 201.622 962.822 200.92 962.159C200.304 961.455 199.925 961.275 199.546 961.095C199.082 960.905 198.619 960.715 198.04 959.922C196.311 958.203 194.697 957.087 193.083 955.97C191.784 954.842 190.484 953.713 189 952.07C188.644 951.304 188.423 951.111 188.151 950.976C187.833 950.77 187.515 950.564 187.008 949.918C186.658 949.273 186.466 949.104 186.244 948.969C184.475 946.677 182.705 944.385 180.914 941.56C180.633 940.894 180.375 940.761 180.117 940.628C179.788 940.244 179.459 939.859 179.345 939.01C179.027 938.034 178.493 937.523 177.96 937.012C177.572 936.377 177.184 935.742 176.797 934.501C176.517 933.6 176.236 933.305 175.955 933.011C175.955 933.011 176.004 933.004 175.979 932.726C175.655 931.969 175.356 931.489 175.056 931.008C175.056 931.008 174.838 930.71 174.831 930.259C174.587 929.549 174.35 929.289 174.112 929.029C173.889 928.439 173.666 927.849 173.655 926.588C173.23 924.947 172.594 923.977 171.957 923.007C171.556 921.706 171.156 920.405 170.851 918.359C170.584 916.725 170.221 915.836 169.857 914.947C169.76 914.632 169.662 914.318 169.736 913.448C169.673 912.281 169.439 911.67 169.205 911.059C169.068 909.987 168.931 908.915 169.169 907.144C169.696 905.476 169.979 904.507 169.98 903.537C170.005 880.631 170.088 857.723 169.877 834.819C169.853 832.226 168.144 829.648 167.217 827.063C167.11 826.606 167.004 826.149 167.237 825.063C167.467 821.837 169.928 818.624 165.793 816.991C164.646 815.556 163.5 814.12 162.14 812.122C161.284 811.371 160.642 811.182 159.999 810.993C159.446 810.829 158.892 810.664 158.332 810.059C157.819 809.435 157.312 809.252 156.805 809.07C156.28 808.922 155.754 808.775 155.052 808.016C153.858 806.986 152.839 806.569 151.821 806.151C151.821 806.151 151.923 806.106 151.785 805.863C151.041 805.434 150.435 805.247 149.829 805.061C139.17 797.74 127.998 791.059 117.946 782.983C83.0818 754.969 55.6264 720.784 35.4929 680.835C17.1859 644.51 6.08325 606.093 2.82989 565.475C2.51193 561.506 1.98728 557.553 1.27929 553.296C1 542.312 1 531.625 1 520.468C2.00097 511.986 2.97816 503.969 4.00683 495.958C10.1132 448.407 25.9627 404.393 51.9684 364.081C75.9218 326.949 106.429 296.322 143.375 272.1C144.345 271.463 145.386 270.934 146.861 270.42C147.523 270.263 147.717 270.043 147.912 269.822C147.912 269.822 147.949 269.916 148.143 269.853C148.562 269.545 148.787 269.302 149.012 269.058C149.438 268.661 149.863 268.263 150.771 268.093C152.16 267.522 153.067 266.724 153.974 265.927C154.401 265.597 154.829 265.268 155.783 264.881C156.62 264.671 156.857 264.444 157.022 264.141C157.49 263.784 157.958 263.426 158.923 263.296C159.942 263 160.464 262.477 160.987 261.953C161.453 261.624 161.919 261.294 162.868 261.204C163.876 260.92 164.401 260.397 164.926 259.873C164.926 259.873 164.989 259.941 165.271 259.932C166.057 259.559 166.56 259.194 167.063 258.83C167.063 258.83 167.264 258.733 167.666 258.754C168.36 258.46 168.653 258.145 168.945 257.83C168.945 257.83 168.921 257.922 169.243 257.934C170.377 257.322 171.189 256.698 172.001 256.074C172.001 256.074 172.232 255.819 172.784 255.877C174.224 255.351 175.111 254.766 175.998 254.182C175.998 254.182 176.289 253.898 176.899 253.928C178.657 253.274 179.805 252.59 180.954 251.906C180.954 251.906 180.994 251.977 181.265 251.959C182.027 251.624 182.519 251.307 183.011 250.99C183.011 250.99 183.246 250.784 183.694 250.793C184.427 250.526 184.712 250.251 184.997 249.976C185.476 249.664 185.955 249.351 186.954 249.294C189.649 248.393 191.823 247.238 193.997 246.082C193.997 246.082 194.293 245.826 194.816 245.878C195.887 245.646 196.435 245.361 196.983 245.076C196.983 245.076 197.298 244.846 197.757 244.837C198.484 244.602 198.753 244.375 199.021 244.149C199.796 243.762 200.57 243.375 201.899 243.271C203.304 243.006 204.154 242.458 205.005 241.91C205.005 241.91 205.229 241.726 205.635 241.781C206.345 241.623 206.649 241.41 206.952 241.196C207.326 241.067 207.699 240.939 208.738 240.881C210.588 240.365 211.774 239.778 212.959 239.191C213.307 239.054 213.654 238.917 214.554 238.81C215.386 238.626 215.666 238.413 215.946 238.199C217.065 237.795 218.183 237.39 219.867 237.259C221.288 237.018 222.143 236.503 222.999 235.988C224.102 235.631 225.206 235.275 226.871 235.223C229.268 234.779 231.104 234.03 232.939 233.281C233.393 233.16 233.847 233.039 234.821 233.195C236.234 233.031 237.127 232.588 238.021 232.146Z" fill="#FFDF1B"/>
<path d="M358.534 1C365.914 2.4785 372.958 3.51697 379.715 5.52312C395.945 10.3416 413.143 22.4742 424.419 36.2236C418.074 42.5414 411.758 48.8319 405.426 55.1376C401.175 51.073 396.573 46.0833 391.384 41.8066C354.632 11.5162 294.559 31.3136 285.191 82.423C278.104 121.088 300.03 154.709 336.678 163.555C367.79 171.064 399.68 150.65 404.574 120.075C404.697 119.303 404.589 118.494 404.589 117.746C389.526 117.746 374.64 117.746 359.334 117.746C359.334 109.345 359.334 101.091 359.334 92.1904C384.094 91.6412 408.968 91.0895 434.338 90.5268C435.456 103.979 434.665 117.017 431.443 129.806C422.016 167.225 387.113 192.338 346.515 191.154C295.946 189.68 256.646 148.326 255.81 97.474C255.025 49.7747 290.235 13.3898 325.328 4.7054C331.271 3.23455 337.432 2.64272 343.746 1.32239C348.689 1 353.378 1 358.534 1Z" fill="#6B6B6B"/>
<path d="M325.453 974.939C322.551 973.015 320.362 970.527 317.624 969.495C300.327 962.978 288.447 951.013 279.746 934.879C272.942 922.263 270.995 909.009 270.999 895.115C271.002 886.827 271.016 878.539 270.986 870.252C270.981 868.691 270.795 867.131 270.619 864.438C269.361 866.177 268.828 866.914 267.952 867.38C267.995 864.627 268.381 862.145 268.844 860.028C269.256 861.114 269.591 861.835 269.926 862.557C270.336 862.279 270.745 862.002 271.155 861.724C270.394 860.81 269.633 859.895 268.814 858.536C271.417 828.753 274.62 799.452 276.584 770.067C278.447 742.168 279.271 714.189 280.057 686.231C280.561 668.269 280.258 650.282 280.123 632.308C280.085 627.332 277.344 624.998 272.591 624.994C267.974 624.991 265.23 627.581 265.024 632.403C264.896 635.395 265.08 638.4 265.105 641.399C265.551 695.225 263.177 748.945 258.886 802.586C258.226 810.842 257.091 819.059 256.175 827.294C256.117 822.131 255.806 816.954 256.088 811.81C256.28 808.3 254.934 806.232 252.04 804.605C234.705 794.862 219.85 781.924 205.081 768.755C187.517 753.094 172.55 735.199 159.222 716.032C145.393 696.146 134.059 674.687 125.663 651.923C120.689 638.438 116.394 624.602 113.126 610.613C107.964 588.512 104.038 566.152 104.961 543.236C105.509 529.622 104.656 515.873 106.245 502.398C108.563 482.728 111.983 463.224 118.126 444.166C123.958 426.07 130.537 408.387 139.272 391.545C149.98 370.898 162.682 351.624 177.583 333.625C195.629 311.829 216.167 292.73 239.297 276.87C255.215 265.956 272.811 257.224 290.378 249.069C303.963 242.764 318.628 238.756 332.89 233.958C337.98 232.246 343.298 231.214 348.512 229.871C348.493 229.376 348.474 228.88 348.455 228.384C346.335 228.257 344.198 228.254 342.101 227.965C340.1 227.69 338.14 227.116 336.079 226.266C343.109 226.672 350.222 227.486 358.08 228.509C385.792 233.813 411.709 242.116 436.342 254.26C470.776 271.236 500.905 293.959 526.872 322.241C547.058 344.227 563.773 368.603 576.9 395.369C603.65 449.916 613.695 507.543 608.12 567.974C604.739 604.625 595.25 639.639 579.463 672.854C550.944 732.853 507.91 779.469 449.907 812.069C447.178 813.602 445.627 815.439 445.387 818.575C444.65 828.17 443.303 837.747 443.11 847.349C442.738 865.839 443.084 884.343 442.97 902.84C442.786 932.659 421.458 961.85 393.15 971.139C388.767 972.577 384.297 973.751 379.867 975.047C361.882 975.047 343.897 975.048 325.453 974.939ZM457.72 592.664C457.406 592.505 457.092 592.347 456.884 592.172C456.884 592.172 456.834 592.266 456.617 591.473C454.794 590.983 452.973 590.076 451.147 590.067C430.698 589.968 410.249 590.006 389.799 590.007C388.031 590.008 386.264 590.007 384.513 590.007C385.659 582.05 386.707 574.774 387.659 566.972C387.758 566.632 387.857 566.291 388.574 565.55C391.042 555.229 393.607 544.931 395.928 534.577C396.819 530.599 397.15 526.496 397.584 521.956C397.682 521.63 397.781 521.303 398.526 520.58C398.955 518.008 399.384 515.436 399.809 512.989C399.809 512.989 399.763 512.872 400.447 512.566C402.156 509.612 403.507 506.684 399.294 503.69C396.988 500.563 393.557 498.746 390.254 500.441C387.906 501.646 385.768 504.835 385.118 507.522C380.572 526.307 376.438 545.192 371.532 564.444C370.038 570.868 368.104 577.23 367.194 583.736C366.498 588.706 364.649 590.165 359.595 590.129C325.838 589.887 292.079 589.974 258.321 590.096C256.555 590.102 254.795 591.391 252.823 592.508C252.61 592.757 252.343 592.916 251.536 593.19C251.374 593.491 251.212 593.792 251.025 594.022C251.025 594.022 251.101 594.029 250.538 594.378C250.432 595.004 250.325 595.629 250.219 596.691C250.219 596.691 250.05 597.093 249.48 597.458C249.719 598.633 249.959 599.808 250.342 601.22C250.342 601.22 250.228 601.474 250.237 602.098C250.51 602.389 250.784 602.68 250.996 602.989C250.996 602.989 251.046 602.948 251.045 603.587C251.465 603.982 251.884 604.378 252.186 604.81C252.186 604.81 252.222 604.692 252.368 605.328C252.953 605.513 253.538 605.698 254.045 605.942C254.045 605.942 254.058 605.845 254.442 606.531C256.825 607.013 259.206 607.906 261.59 607.913C293.532 608.007 325.476 608.032 357.418 607.915C361.699 607.899 362.578 609.253 361.508 613.267C360.632 616.551 360.665 620.076 360.376 624.302C359.273 630.525 358.07 636.733 357.084 642.975C351.561 677.963 345.713 712.907 340.72 747.972C336.617 776.782 333.339 805.716 330.098 834.641C327.819 854.974 326.084 875.373 324.353 895.763C323.044 911.183 322.047 926.631 321.072 942.077C320.698 948.006 322.742 950.706 327.206 951.088C332.431 951.535 335.43 949.008 336.183 943.424C336.493 941.119 336.685 938.796 336.868 936.476C338.988 909.605 340.604 882.683 343.334 855.875C346.686 822.946 350.531 790.054 354.965 757.254C359.353 724.796 364.592 692.45 369.744 660.1C372.595 642.204 376.032 624.402 380.091 606.342C403.326 606.286 426.561 606.293 449.795 606.077C452.189 606.055 454.571 604.699 457 604C457 604 456.962 603.958 457.495 603.693C457.726 603.164 457.957 602.635 458.139 602.004C458.139 602.004 458.139 602.118 458.698 601.576C458.523 599.535 458.348 597.494 458.271 594.966C458.215 594.64 458.183 594.311 458.461 593.737C458.231 593.557 458.001 593.377 457.814 593.086C457.814 593.086 457.842 593.201 457.72 592.664ZM261.547 534.142C259.523 541.067 262.583 546.33 268.388 545.735C271.809 545.384 274.44 543.775 275.016 540.063C275.557 536.586 275.175 533.261 271.68 531.404C267.951 529.422 264.618 530.161 261.547 534.142Z" fill="#F8D91D"/>
<path d="M380.347 975.086C384.297 973.75 388.767 972.577 393.15 971.138C421.458 961.85 442.786 932.659 442.97 902.84C443.084 884.343 442.738 865.839 443.11 847.349C443.303 837.747 444.65 828.17 445.387 818.575C445.627 815.439 447.179 813.602 449.907 812.069C507.91 779.469 550.944 732.853 579.463 672.853C595.25 639.639 604.739 604.624 608.12 567.973C613.695 507.543 603.65 449.916 576.9 395.369C563.773 368.603 547.058 344.227 526.872 322.241C500.905 293.959 470.776 271.236 436.342 254.259C411.709 242.115 385.792 233.813 358.532 228.525C455.872 213.34 541.326 239.217 613.727 306.167C664.505 353.121 695.321 411.645 707.585 479.582C731.426 611.644 671.6 745.434 553.334 811.88C550.222 813.628 548.684 815.521 548.447 819.035C547.756 829.295 546.348 839.527 546.109 849.791C545.71 866.944 546.006 884.114 545.999 901.276C545.982 940.803 514.223 974.125 474.799 974.942C443.488 975.59 412.152 975.106 380.347 975.086Z" fill="#6B6A69"/>
<path d="M463.03 1070.46C459.648 1070.79 456.663 1071.12 453.679 1071.12C390.7 1071.15 327.718 1070.85 264.743 1071.36C249.326 1071.48 234.586 1061.34 238.283 1039.58C241.011 1023.53 249.287 1016.59 265.588 1016.6C328.234 1016.6 390.885 1017.09 453.522 1016.31C473.825 1016.06 486.445 1030.1 480.626 1052.01C478.176 1061.23 472.854 1067.68 463.03 1070.46Z" fill="#6A6A6A"/>
<path d="M513.378 131.104C501.375 156.53 489.67 181.705 477.653 207.55C469.25 203.672 461.064 199.893 452.388 195.889C478.031 140.358 503.45 85.3098 529.06 29.8501C537.58 33.7797 545.802 37.5716 554.374 41.5254C544.345 63.2844 534.484 84.6769 524.483 106.375C548.329 117.385 571.703 128.177 595.617 139.218C605.568 117.712 615.452 96.3544 625.594 74.4377C634.098 78.3622 642.305 82.1497 650.9 86.1163C625.252 141.669 599.831 196.73 574.235 252.171C565.644 248.192 557.422 244.384 548.937 240.454C560.841 214.631 572.59 189.141 584.561 163.171C581.298 161.623 578.356 160.199 575.39 158.825C556.224 149.951 537.057 141.077 517.874 132.24C516.544 131.627 515.079 131.308 513.378 131.104Z" fill="#6B6B6B"/>
<path d="M661.386 234.382C679.738 211.952 697.857 189.789 716.401 167.107C705.577 158.215 694.868 149.418 683.951 140.45C689.522 133.66 694.883 127.125 700.571 120.191C729.458 143.786 758.041 167.132 787.073 190.845C781.56 197.616 776.156 204.254 770.502 211.198C759.743 202.432 749.189 193.832 738.059 184.763C705.093 225.092 672.201 265.33 638.931 306.03C631.633 300.068 624.641 294.355 617.341 288.391C632.16 270.213 646.656 252.432 661.386 234.382Z" fill="#6B6B6B"/>
<path d="M93.4967 209.518C72.8678 175.14 52.4476 141.063 31.8459 106.682C39.8202 101.896 47.4859 97.2958 55.7227 92.3525C82.6467 137.157 109.423 181.715 136.395 226.599C151.854 217.339 166.942 208.301 182.391 199.047C186.917 206.575 191.26 213.799 195.901 221.517C172.495 235.57 149.46 249.4 125.96 263.51C115.074 245.388 104.39 227.603 93.4967 209.518Z" fill="#6B6B6B"/>
<path d="M324 1084.39C357.331 1084.39 390.161 1084.37 422.992 1084.42C425.973 1084.42 429.037 1084.5 431.919 1085.17C441.449 1087.38 447.269 1096.55 446.016 1106.92C444.897 1116.18 437.061 1123.13 427.485 1123.14C382.488 1123.17 337.492 1123.17 292.495 1123.14C282.308 1123.13 274.461 1115.86 273.462 1105.7C272.48 1095.72 279.431 1085.89 289.553 1085.01C300.801 1084.03 312.179 1084.53 324 1084.39Z" fill="#6C6C6C"/>
<path d="M202.045 105.926C214.579 139.59 227.006 172.879 239.614 206.649C230.829 209.944 222.482 213.074 213.487 216.447C192.176 159.282 170.973 102.406 149.594 45.0597C158.373 41.7838 166.723 38.6682 175.703 35.3174C184.532 58.9537 193.236 82.2526 202.045 105.926Z" fill="#6B6B6B"/>
<path d="M745.159 902.994C745.159 907.799 745.159 912.106 745.159 916.784C741.425 916.784 738.026 916.784 733.841 916.784C733.841 906.801 733.841 896.719 733.841 886.638C733.841 876.481 733.841 866.324 733.841 856.167C733.535 855.999 733.23 855.832 732.924 855.664C724.206 870.707 715.487 885.75 706.365 901.486C697.351 885.99 688.619 870.979 679.223 854.826C679.223 876.151 679.223 896.274 679.223 916.781C675.128 916.781 671.559 916.781 667.565 916.781C667.565 887.844 667.565 858.831 667.565 829.821C676.571 827.84 677.437 828.2 681.821 835.782C689.065 848.31 696.3 860.845 703.555 873.367C704.293 874.641 705.143 875.85 706.312 877.666C707.436 875.973 708.359 874.73 709.128 873.398C716.365 860.865 723.602 848.331 730.785 835.767C735.072 828.269 735.411 828.077 745.159 829.803C745.159 853.965 745.159 878.231 745.159 902.994Z" fill="#717171"/>
<path d="M776.678 969.28C791.652 979.131 799.302 992.732 798.448 1010.29C797.56 1028.52 788.303 1041.97 771.724 1049.33C755.993 1056.31 740.352 1054.8 726.409 1044.3C712.553 1033.86 706.205 1019.61 708.672 1002.33C713.344 969.612 747.476 953.014 776.678 969.28ZM785.89 1016.02C785.969 1011.4 786.649 1006.7 786.021 1002.18C783.557 984.439 765.388 971.903 747.466 975.221C729.333 978.578 717.002 996.261 720.476 1013.93C723.471 1029.16 735.839 1040.4 750.662 1041.36C767.195 1042.43 780.286 1033.25 785.89 1016.02Z" fill="#727272"/>
<path d="M989.653 1012.38C985.365 1005.03 981.279 997.984 977.193 990.939C976.917 990.985 976.64 991.031 976.364 991.076C976.364 1011.18 976.364 1031.29 976.364 1051.78C972.407 1051.78 969.01 1051.78 965.224 1051.78C965.224 1022.78 965.224 993.742 965.224 964.733C974.683 963.078 974.664 963.089 979.148 970.85C989.464 988.706 999.801 1006.55 1010.91 1025.75C1010.91 1004.51 1010.91 984.708 1010.91 964.523C1015.06 964.523 1018.63 964.523 1022.61 964.523C1022.61 993.471 1022.61 1022.51 1022.61 1051.55C1013.25 1053.25 1013.28 1053.24 1008.85 1045.55C1002.54 1034.58 996.188 1023.64 989.653 1012.38Z" fill="#717171"/>
<path d="M1043.44 1030.48C1032.34 1008.8 1038.03 984.459 1057.02 971.105C1075.1 958.396 1099.95 961.113 1115.84 977.662C1113.15 980.134 1110.46 982.602 1108.47 984.437C1101.34 981.309 1095.01 977.392 1088.13 975.734C1071.29 971.676 1052.74 984.887 1050.06 1001.96C1047.06 1021.06 1059.64 1038.92 1077.65 1041.07C1085.07 1041.95 1092.39 1041.51 1098.88 1037.44C1100.46 1036.45 1101.9 1033.95 1101.99 1032.08C1102.35 1024.62 1102.14 1017.14 1102.14 1009.26C1106.15 1009.26 1109.83 1009.26 1114 1009.26C1114 1019.17 1114.1 1028.96 1113.88 1038.74C1113.85 1040.06 1112.43 1041.63 1111.26 1042.62C1091 1059.75 1061.08 1055.85 1045.83 1034.14C1045.06 1033.05 1044.37 1031.91 1043.44 1030.48Z" fill="#727272"/>
<path d="M602 964.133C608.653 964.133 614.805 964.133 621.409 964.133C621.409 967.918 621.409 971.463 621.409 975.673C609.886 975.673 598.178 975.673 586.175 975.673C586.175 984.715 586.175 993.121 586.175 1002.22C597.893 1002.22 609.591 1002.22 621.571 1002.22C621.571 1006.32 621.571 1009.75 621.571 1013.8C609.934 1013.8 598.23 1013.8 586.198 1013.8C586.198 1022.8 586.198 1031.2 586.198 1040.32C597.917 1040.32 609.616 1040.32 621.576 1040.32C621.576 1044.47 621.576 1047.89 621.576 1051.74C605.876 1051.74 590.203 1051.74 574.258 1051.74C574.258 1022.74 574.258 993.829 574.258 964.133C583.33 964.133 592.415 964.133 602 964.133Z" fill="#727272"/>
<path d="M634.007 1138C634.007 1144.99 634.01 1151.48 634.006 1157.98C633.997 1174.25 621.437 1187.46 605.47 1188C588.797 1188.56 574.593 1176.15 574.202 1159.69C573.729 1139.74 574.09 1119.76 574.09 1099.39C577.866 1099.39 581.564 1099.39 585.861 1099.39C585.861 1101.22 585.861 1103 585.861 1104.78C585.861 1122.59 585.771 1140.4 585.901 1158.22C585.961 1166.5 591.447 1173.38 599.197 1175.56C606.887 1177.72 615.526 1174.73 619.463 1167.55C621.352 1164.11 622.179 1159.69 622.248 1155.7C622.542 1138.72 622.372 1121.74 622.372 1104.76C622.372 1102.98 622.372 1101.19 622.372 1099.2C626.417 1099.2 629.863 1099.2 634.007 1099.2C634.007 1112.01 634.007 1124.75 634.007 1138Z" fill="#717171"/>
<path d="M882.993 843.008C882.993 838.225 882.993 833.94 882.993 829.406C898.948 829.406 914.375 829.406 930.216 829.406C930.216 832.959 930.216 836.511 930.216 840.633C918.602 840.633 907.047 840.633 895.059 840.633C895.059 849.692 895.059 858.199 895.059 867.382C903.964 867.382 912.733 867.382 921.503 867.382C931.774 867.382 932.094 867.802 929.928 879.015C918.438 879.015 906.849 879.015 894.945 879.015C894.945 888.032 894.945 896.596 894.945 905.673C906.654 905.673 918.244 905.673 930.226 905.673C930.226 909.564 930.226 912.954 930.226 916.758C914.701 916.758 899.172 916.758 882.993 916.758C882.993 892.339 882.993 867.922 882.993 843.008Z" fill="#717171"/>
<path d="M800.51 885.634C792.33 887.412 784.468 888.992 775.915 890.711C775.915 898.633 775.915 907.555 775.915 916.817C771.866 916.817 768.311 916.817 764.443 916.817C764.443 887.764 764.443 858.848 764.443 828.513C774.872 829.217 785.538 828.545 795.449 830.963C807.388 833.876 814.363 843.179 815.802 855.556C817.314 868.557 811.892 878.518 800.51 885.634ZM792.356 876.357C802.032 871.939 806.459 862.825 803.412 853.593C800.025 843.328 789.6 838.687 776.286 841.527C776.286 853.384 776.286 865.241 776.286 877.66C781.687 877.318 786.639 877.005 792.356 876.357Z" fill="#737373"/>
<path d="M666.978 1125.92C671.086 1128.15 674.777 1130.41 678.711 1132.11C693.039 1138.31 700.684 1149.17 699.99 1162.73C699.293 1176.34 687.636 1187.66 673.855 1188.13C659.331 1188.62 646.945 1178.63 645.322 1164.88C645.186 1163.73 646.29 1161.82 647.346 1161.26C649.816 1159.96 652.606 1159.27 655.805 1158.14C656.235 1159.98 656.639 1161.68 657.03 1163.38C658.796 1171.07 663.89 1175.84 670.887 1176.36C678.381 1176.91 684.482 1173.26 687.218 1166.58C689.963 1159.88 688.177 1152.45 681.92 1147.9C677.945 1145 673.333 1142.93 668.877 1140.76C659.448 1136.17 651.654 1130.47 651.831 1118.52C651.975 1108.78 658.202 1100.87 667.596 1098.68C677.372 1096.39 686.538 1100.69 690.889 1109.65C691.611 1111.14 692.129 1112.73 692.914 1114.71C689.463 1116.11 686.126 1117.47 682.825 1118.81C677.274 1110.03 672.476 1107.77 667.299 1111.35C662.671 1114.55 662.415 1120.43 666.978 1125.92Z" fill="#727272"/>
<path d="M575.49 850.617C575.771 839.923 580.64 832.382 588.875 829.392C597.036 826.429 606.093 828.531 611.598 835.152C613.751 837.74 615.061 841.029 617.064 844.541C613.13 846.216 609.97 847.563 606.489 849.045C605.634 847.475 604.887 846.044 604.084 844.646C602.169 841.311 599.152 838.987 595.494 840.124C592.661 841.005 589.731 843.24 588.033 845.696C585.799 848.928 587.163 852.757 589.982 855.144C592.842 857.565 596.414 859.136 599.646 861.126C604.847 864.33 610.627 866.906 615.086 870.937C624.378 879.338 626.358 891.51 621.264 902.396C616.077 913.479 605.551 919.228 592.623 918.038C581.824 917.045 572.915 908.831 569.589 897.361C568.476 893.522 569.016 891.402 573.117 890.501C575.208 890.042 577.193 889.104 579.68 888.222C580.173 890.462 580.552 892.536 581.091 894.568C582.957 901.606 588.182 906.055 595.271 906.721C601.205 907.279 607.972 903.252 610.688 897.547C613.633 891.36 612.566 883.827 607.102 879.289C603.215 876.061 598.579 873.563 593.96 871.423C584.831 867.193 576.935 862.118 575.49 850.617Z" fill="#727272"/>
<path d="M649.557 1015.48C643.31 998.3 637.236 981.469 631.147 964.6C631.986 964.368 632.301 964.219 632.624 964.201C643.285 963.601 643.284 963.604 646.891 973.575C652.597 989.349 658.301 1005.12 664.021 1020.89C664.517 1022.26 665.133 1023.58 666.136 1025.99C667.281 1023.25 668.131 1021.43 668.818 1019.55C674.743 1003.32 680.916 987.181 686.385 970.802C688.187 965.404 690.657 963.082 696.226 964.097C697.653 964.356 699.166 964.136 701.408 964.136C698.98 970.931 696.797 977.145 694.543 983.333C686.751 1004.72 678.921 1026.08 671.146 1047.47C670.237 1049.97 669.883 1052.36 666.067 1052.31C662.496 1052.26 662.075 1049.97 661.248 1047.7C657.382 1037.09 653.564 1026.46 649.557 1015.48Z" fill="#727272"/>
<path d="M911.289 964.908C915.421 964.554 919.337 964.554 923.801 964.554C919.836 975.416 915.969 985.999 912.109 996.585C905.79 1013.92 899.437 1031.24 893.203 1048.61C892.389 1050.87 891.591 1052.29 888.782 1052.26C886.198 1052.23 884.968 1051.37 884.099 1048.96C874.231 1021.6 864.266 994.269 854.343 966.926C854.126 966.328 854.103 965.66 853.837 964.173C857.506 964.173 860.934 963.885 864.261 964.338C865.344 964.486 866.544 966.428 867.048 967.787C873.7 985.7 880.234 1003.66 886.806 1021.6C887.294 1022.93 887.843 1024.24 888.687 1026.38C896.338 1005.49 903.706 985.378 911.289 964.908Z" fill="#727272"/>
<path d="M341.114 1177.81C333.928 1167.72 333.648 1155.97 340.167 1146.87C346.102 1138.59 356.554 1134.84 366.151 1137.54C376.162 1140.36 383.351 1149.02 384.052 1159.1C384.86 1170.73 379.523 1180.3 369.753 1184.75C359.931 1189.22 349.943 1186.89 341.114 1177.81Z" fill="#6B6B6B"/>
<path d="M825.008 1015C825.008 1023.61 825.008 1031.73 825.008 1040.38C833.796 1040.38 842.082 1040.68 850.333 1040.27C855.299 1040.02 857.547 1041.3 856.665 1046.52C856.396 1048.11 856.623 1049.79 856.623 1051.8C842.038 1051.8 827.865 1051.8 813.414 1051.8C813.414 1022.71 813.414 993.826 813.414 964.538C817.023 964.538 820.59 964.538 825.008 964.538C825.008 981.071 825.008 997.785 825.008 1015Z" fill="#727272"/>
<path d="M838.853 858C838.853 874.108 838.853 889.715 838.853 905.72C849.38 905.72 859.323 905.72 869.634 905.72C869.634 909.52 869.634 912.927 869.634 916.753C855.722 916.753 841.682 916.753 827.315 916.753C827.315 887.713 827.315 858.674 827.315 829.408C831.13 829.408 834.702 829.408 838.853 829.408C838.853 838.939 838.853 848.219 838.853 858Z" fill="#717171"/>
<path d="M947.157 1045.92C947.157 1048.05 947.157 1049.7 947.157 1051.75C943.445 1051.75 940.046 1051.75 936.247 1051.75C936.247 1022.84 936.247 993.805 936.247 964.456C939.712 964.456 943.11 964.456 947.157 964.456C947.157 991.564 947.157 1018.5 947.157 1045.92Z" fill="#6F6F6F"/>
<path d="M647.157 879C647.157 891.804 647.157 904.108 647.157 916.785C643.394 916.785 639.993 916.785 636.216 916.785C636.216 887.79 636.216 858.756 636.216 829.437C639.768 829.437 643.166 829.437 647.157 829.437C647.157 845.946 647.157 862.223 647.157 879Z" fill="#6F6F6F"/>
<path d="M167.138 827.483C168.144 829.648 169.853 832.226 169.877 834.819C170.088 857.724 170.005 880.631 169.98 903.537C169.979 904.507 169.695 905.477 169.242 906.743C168.63 904.609 168.061 902.178 168.049 899.746C167.967 882.596 168.085 865.446 167.952 848.298C167.9 841.497 167.371 834.701 167.138 827.483Z" fill="#F8D91D"/>
<path d="M236.543 974.837C237.202 974.48 238.308 974.03 239.415 974.028C262.393 973.989 285.37 973.998 308.348 974.015C309 974.016 309.651 974.212 310.619 974.571C286.287 974.868 261.639 974.911 236.543 974.837Z" fill="#F8D91D"/>
<path d="M320.697 224.714C319.301 225.316 317.582 225.957 315.865 225.95C307.435 225.915 299.005 225.709 290.277 225.266C300.111 224.798 310.243 224.626 320.697 224.714Z" fill="#F8D91D"/>
<path d="M219.186 971.292C222.809 971.825 226.682 972.631 230.785 973.734C227.155 973.209 223.296 972.387 219.186 971.292Z" fill="#F8D91D"/>
<path d="M275.58 225.827C274.219 229.831 271.119 227.55 268.222 227.211C270.353 226.525 272.756 226.134 275.58 225.827Z" fill="#F8D91D"/>
<path d="M165.739 817.418C169.928 818.624 167.467 821.837 167.3 824.714C166.577 822.611 166.131 820.228 165.739 817.418Z" fill="#F8D91D"/>
<path d="M207.958 966.482C210.161 967.159 212.517 968.143 214.966 969.456C212.743 968.786 210.428 967.788 207.958 966.482Z" fill="#F8D91D"/>
<path d="M193.639 246.089C191.823 247.238 189.649 248.394 187.257 249.322C189.119 248.095 191.2 247.095 193.639 246.089Z" fill="#F8D91D"/>
<path d="M232.586 233.209C231.104 234.031 229.268 234.78 227.223 235.281C228.753 234.401 230.493 233.769 232.586 233.209Z" fill="#F8D91D"/>
<path d="M193.19 956.278C194.697 957.087 196.311 958.203 197.958 959.674C196.427 958.881 194.862 957.733 193.19 956.278Z" fill="#F8D91D"/>
<path d="M247.642 229.916C246.816 230.493 245.631 231.006 244.219 231.259C245.089 230.617 246.186 230.234 247.642 229.916Z" fill="#F8D91D"/>
<path d="M153.661 265.951C153.067 266.725 152.16 267.522 151.071 268.051C151.708 267.179 152.529 266.577 153.661 265.951Z" fill="#F8D91D"/>
<path d="M212.615 239.132C211.774 239.778 210.588 240.365 209.034 240.92C209.868 240.284 211.07 239.678 212.615 239.132Z" fill="#F8D91D"/>
<path d="M222.665 235.952C222.143 236.503 221.288 237.018 220.225 237.291C220.789 236.672 221.56 236.294 222.665 235.952Z" fill="#F8D91D"/>
<path d="M257.614 228.032C256.758 228.553 255.549 229 254.162 229.209C255.076 228.633 256.169 228.296 257.614 228.032Z" fill="#F8D91D"/>
<path d="M204.668 241.896C204.154 242.458 203.304 243.006 202.242 243.313C202.797 242.675 203.565 242.278 204.668 241.896Z" fill="#F8D91D"/>
<path d="M180.609 251.91C179.805 252.59 178.657 253.274 177.102 253.927C177.885 253.235 179.074 252.574 180.609 251.91Z" fill="#F8D91D"/>
<path d="M237.691 232.083C237.128 232.588 236.234 233.031 235.172 233.247C235.789 232.688 236.575 232.354 237.691 232.083Z" fill="#F8D91D"/>
<path d="M171.94 923.37C172.594 923.977 173.23 924.947 173.808 926.299C173.14 925.699 172.531 924.716 171.94 923.37Z" fill="#F8D91D"/>
<path d="M171.68 256.068C171.189 256.698 170.377 257.322 169.203 257.909C169.68 257.268 170.52 256.665 171.68 256.068Z" fill="#F8D91D"/>
<path d="M175.67 254.154C175.111 254.766 174.224 255.351 172.955 255.901C173.496 255.287 174.419 254.707 175.67 254.154Z" fill="#F8D91D"/>
<path d="M151.962 806.442C152.839 806.569 153.858 806.987 154.915 807.771C154.004 807.669 153.054 807.201 151.962 806.442Z" fill="#F8D91D"/>
<path d="M160.156 811.25C160.642 811.182 161.284 811.371 161.934 811.864C161.399 811.947 160.856 811.726 160.156 811.25Z" fill="#F8D91D"/>
<path d="M164.623 259.877C164.401 260.397 163.876 260.92 163.169 261.217C163.431 260.621 163.875 260.252 164.623 259.877Z" fill="#F8D91D"/>
<path d="M177.983 937.314C178.493 937.524 179.027 938.035 179.365 938.737C178.782 938.49 178.394 938.053 177.983 937.314Z" fill="#F8D91D"/>
<path d="M160.683 261.966C160.464 262.477 159.942 263 159.234 263.318C159.492 262.734 159.935 262.357 160.683 261.966Z" fill="#F8D91D"/>
<path d="M283.595 225.089C283.13 225.343 282.311 225.507 281.291 225.481C281.806 225.195 282.523 225.097 283.595 225.089Z" fill="#F8D91D"/>
<path d="M169.815 915.32C170.221 915.836 170.584 916.725 170.914 918.007C170.511 917.497 170.141 916.595 169.815 915.32Z" fill="#F8D91D"/>
<path d="M332.29 225.616C331.59 225.816 330.614 225.755 329.358 225.463C330.057 225.273 331.036 225.313 332.29 225.616Z" fill="#F8D91D"/>
<path d="M264.6 227.124C264.331 227.436 263.721 227.672 262.764 227.886C263.031 227.591 263.645 227.319 264.6 227.124Z" fill="#F8D91D"/>
<path d="M182.698 250.969C182.519 251.307 182.027 251.625 181.227 251.945C181.407 251.614 181.896 251.281 182.698 250.969Z" fill="#F8D91D"/>
<path d="M150.006 805.327C150.435 805.248 151.041 805.434 151.791 805.919C151.35 806.009 150.767 805.801 150.006 805.327Z" fill="#F8D91D"/>
<path d="M206.009 965.387C206.46 965.284 207.059 965.465 207.786 965.947C207.329 966.056 206.742 965.864 206.009 965.387Z" fill="#F8D91D"/>
<path d="M175.025 931.313C175.355 931.489 175.655 931.969 175.965 932.747C175.648 932.569 175.321 932.093 175.025 931.313Z" fill="#F8D91D"/>
<path d="M166.735 258.833C166.56 259.195 166.057 259.559 165.225 259.925C165.4 259.563 165.903 259.199 166.735 258.833Z" fill="#F8D91D"/>
<path d="M156.939 809.313C157.312 809.253 157.819 809.436 158.193 809.795C157.732 809.833 157.402 809.694 156.939 809.313Z" fill="#F8D91D"/>
<path d="M196.661 245.036C196.435 245.361 195.887 245.646 195.01 245.91C195.232 245.591 195.785 245.293 196.661 245.036Z" fill="#F8D91D"/>
<path d="M169.119 911.4C169.439 911.67 169.673 912.281 169.883 913.24C169.583 912.971 169.308 912.356 169.119 911.4Z" fill="#F8D91D"/>
<path d="M241.731 231.167C241.965 231.214 241.679 231.542 241.679 231.542C241.679 231.542 241.267 231.536 241.166 231.427C241.064 231.319 241.498 231.12 241.731 231.167Z" fill="#F8D91D"/>
<path d="M184.694 250.019C184.712 250.251 184.427 250.526 183.837 250.854C183.819 250.625 184.105 250.343 184.694 250.019Z" fill="#F8D91D"/>
<path d="M168.613 257.877C168.653 258.146 168.36 258.461 167.739 258.839C167.7 258.576 167.99 258.25 168.613 257.877Z" fill="#F8D91D"/>
<path d="M147.66 269.854C147.717 270.043 147.523 270.264 147.197 270.372C147.179 270.135 147.294 270.01 147.66 269.854Z" fill="#F8D91D"/>
<path d="M206.656 241.176C206.649 241.41 206.345 241.623 205.753 241.865C205.763 241.648 206.061 241.402 206.656 241.176Z" fill="#F8D91D"/>
<path d="M198.742 244.155C198.753 244.376 198.484 244.602 197.949 244.875C197.942 244.668 198.203 244.414 198.742 244.155Z" fill="#F8D91D"/>
<path d="M148.742 269.083C148.787 269.302 148.562 269.546 148.093 269.86C148.057 269.657 148.264 269.382 148.742 269.083Z" fill="#F8D91D"/>
<path d="M156.762 264.167C156.857 264.444 156.619 264.672 156.067 264.891C156.05 264.703 156.276 264.448 156.762 264.167Z" fill="#F8D91D"/>
<path d="M215.667 238.189C215.666 238.413 215.386 238.627 214.832 238.87C214.835 238.66 215.112 238.419 215.667 238.189Z" fill="#F8D91D"/>
<path d="M174.141 929.301C174.35 929.289 174.587 929.549 174.87 930.079C174.667 930.09 174.418 929.831 174.141 929.301Z" fill="#F8D91D"/>
<path d="M176.001 933.322C176.236 933.306 176.517 933.601 176.854 934.208C176.621 934.225 176.334 933.929 176.001 933.322Z" fill="#F8D91D"/>
<path d="M180.251 940.882C180.375 940.761 180.633 940.894 180.888 941.225C180.718 941.327 180.552 941.231 180.251 940.882Z" fill="#F8D91D"/>
<path d="M186.272 949.185C186.466 949.104 186.658 949.273 186.923 949.638C186.699 949.826 186.456 949.693 186.272 949.185Z" fill="#F8D91D"/>
<path d="M188.195 951.211C188.423 951.111 188.644 951.304 188.912 951.754C188.667 951.915 188.409 951.745 188.195 951.211Z" fill="#F8D91D"/>
<path d="M199.707 961.364C199.925 961.275 200.304 961.455 200.818 961.926C200.592 962.023 200.23 961.828 199.707 961.364Z" fill="#F8D91D"/>
<path d="M202.726 963.376C202.943 963.268 203.332 963.438 203.894 963.883C203.677 963.99 203.287 963.822 202.726 963.376Z" fill="#F8D91D"/>
<path d="M204.569 964.4C204.808 964.265 205.213 964.421 205.79 964.861C205.553 964.993 205.144 964.843 204.569 964.4Z" fill="#F8D91D"/>
<path d="M256.214 827.476C257.091 819.059 258.226 810.842 258.886 802.586C263.177 748.945 265.552 695.225 265.105 641.399C265.08 638.4 264.896 635.395 265.024 632.403C265.23 627.581 267.974 624.991 272.592 624.994C277.344 624.998 280.086 627.332 280.123 632.308C280.258 650.282 280.562 668.269 280.057 686.231C279.271 714.189 278.448 742.168 276.584 770.067C274.621 799.452 271.417 828.753 268.733 858.698C268.711 859.306 268.768 859.664 268.768 859.664C268.382 862.145 267.996 864.627 267.641 867.537C267.673 867.967 267.632 868.276 267.49 868.716C267.234 870.769 267.12 872.382 267.006 873.995C266.908 874.415 266.811 874.834 266.503 875.893C266.142 878.686 265.991 880.839 265.84 882.992C265.764 883.331 265.687 883.671 265.467 884.59C264.872 889.113 264.42 893.056 263.969 896.999C263.845 897.406 263.721 897.813 263.424 898.887C262.787 903.711 262.324 907.869 261.861 912.027C261.771 912.349 261.68 912.672 261.44 913.525C261.144 915.68 260.999 917.303 260.854 918.926C260.854 918.926 260.961 918.989 260.681 919.018C260.289 919.36 260.178 919.673 260.067 919.986C258.888 920.909 257.709 921.832 255.838 922.91C253.43 923.068 251.714 923.071 249.998 923.073C248.986 922.121 247.973 921.17 246.638 919.577C246.326 915.303 246.336 911.67 246.346 908.037C246.346 908.037 246.434 907.746 246.547 907.477C246.707 906.821 246.755 906.433 246.802 906.046C246.845 905.867 246.888 905.688 247.024 904.846C247.471 901.125 247.826 898.068 248.181 895.01C248.181 895.01 248.325 894.718 248.486 894.229C249.801 884.153 250.955 874.566 252.109 864.979C252.192 864.646 252.274 864.313 252.499 863.379C253.084 858.189 253.527 853.599 253.97 849.01C254.105 848.074 254.241 847.138 254.524 845.509C255.153 839.211 255.634 833.607 256.114 828.003C256.114 828.003 256.253 827.658 256.214 827.476Z" fill="#5D5A4A"/>
<path d="M251.752 865.166C250.955 874.566 249.801 884.153 248.396 894.094C248.837 885.267 249.512 876.086 250.268 866.912C250.313 866.365 251.005 865.871 251.752 865.166Z" fill="#F8D91D"/>
<path d="M255.709 828.086C255.634 833.607 255.153 839.211 254.403 845.172C254.088 841.051 253.944 836.573 254.062 832.101C254.096 830.781 254.869 829.48 255.709 828.086Z" fill="#F8D91D"/>
<path d="M245.92 908.09C246.336 911.67 246.326 915.303 246.418 919.377C245.692 919.091 244.12 918.317 244.162 917.646C244.365 914.463 245.008 911.308 245.92 908.09Z" fill="#F8D91D"/>
<path d="M262.219 911.844C262.324 907.869 262.787 903.711 263.441 899.208C263.281 903.129 262.929 907.395 262.219 911.844Z" fill="#F8D91D"/>
<path d="M264.364 896.908C264.421 893.056 264.872 889.113 265.593 884.824C265.494 888.591 265.127 892.704 264.364 896.908Z" fill="#F8D91D"/>
<path d="M253.694 849.274C253.527 853.599 253.084 858.189 252.388 863.141C252.562 858.849 252.99 854.194 253.694 849.274Z" fill="#F8D91D"/>
<path d="M247.82 895.055C247.826 898.067 247.471 901.125 246.993 904.572C247.066 901.674 247.263 898.387 247.82 895.055Z" fill="#F8D91D"/>
<path d="M266.192 882.948C265.991 880.838 266.142 878.685 266.529 876.218C266.691 878.237 266.617 880.571 266.192 882.948Z" fill="#F8D91D"/>
<path d="M250.033 923.355C251.714 923.07 253.43 923.068 255.574 923.097C254.311 926.649 252.146 924.64 250.033 923.355Z" fill="#F8D91D"/>
<path d="M267.292 873.715C267.12 872.382 267.234 870.768 267.601 868.824C267.763 870.141 267.67 871.788 267.292 873.715Z" fill="#F8D91D"/>
<path d="M261.181 918.681C260.999 917.303 261.144 915.68 261.569 913.746C261.735 915.102 261.621 916.769 261.181 918.681Z" fill="#F8D91D"/>
<path d="M246.599 906.25C246.755 906.433 246.707 906.821 246.42 907.393C246.253 907.204 246.324 906.829 246.599 906.25Z" fill="#F8D91D"/>
<path d="M260.274 919.864C260.178 919.673 260.289 919.361 260.643 918.969C260.87 919.23 260.735 919.514 260.274 919.864Z" fill="#F8D91D"/>
<path d="M252.022 592.985C252.343 592.916 252.61 592.757 253.235 592.263C254.257 591.975 254.868 591.931 255.991 591.913C291.938 591.958 327.374 591.987 362.81 591.949C364.192 591.947 365.573 591.292 367.034 590.557C368.8 581.463 370.486 572.754 372.172 564.045C376.438 545.192 380.572 526.307 385.118 507.522C385.768 504.835 387.906 501.646 390.254 500.441C393.558 498.746 396.988 500.563 399.604 504.341C399.863 507.619 399.813 510.245 399.763 512.872C399.763 512.872 399.809 512.989 399.55 513.189C398.82 515.919 398.35 518.448 397.88 520.977C397.781 521.303 397.682 521.63 397.4 522.502C394.129 537.349 391.043 551.65 387.956 565.951C387.857 566.291 387.758 566.632 387.463 567.554C385.937 574.183 384.492 580.21 383.359 586.294C383.073 587.831 383.782 589.554 384.358 591.442C407.939 591.764 431.197 591.836 454.757 591.91C455.651 592.03 456.243 592.148 456.834 592.266C456.834 592.266 456.884 592.172 456.918 592.429C457.249 592.858 457.546 593.03 457.843 593.201C457.843 593.201 457.814 593.086 457.843 593.363C457.872 593.64 458.176 593.98 458.176 593.98C458.183 594.311 458.215 594.64 458.173 595.693C458.096 598.319 458.118 600.218 458.139 602.118C458.139 602.118 458.139 602.004 457.877 602.162C457.397 602.866 457.18 603.412 456.962 603.958C456.962 603.958 457 604 456.559 603.996C453.337 604.324 450.556 604.933 447.773 604.944C426.654 605.025 405.535 604.953 384.416 605.059C382.677 605.067 380.942 606.035 379.205 606.558C376.032 624.402 372.595 642.204 369.744 660.1C364.592 692.45 359.353 724.796 354.965 757.254C350.531 790.054 346.686 822.946 343.334 855.875C340.605 882.683 338.988 909.605 336.868 936.476C336.685 938.796 336.493 941.119 336.183 943.424C335.43 949.008 332.431 951.535 327.206 951.088C322.742 950.706 320.698 948.006 321.072 942.077C322.047 926.631 323.044 911.183 324.353 895.763C326.084 875.373 327.819 854.974 330.098 834.641C333.339 805.716 336.617 776.782 340.72 747.972C345.713 712.907 351.561 677.963 357.084 642.974C358.07 636.733 359.273 630.525 360.572 623.575C361.847 617.517 362.925 612.187 364.161 606.078C357.958 606.078 352.362 606.089 346.767 606.076C315.864 606.002 284.961 605.923 254.058 605.845C254.058 605.845 254.045 605.942 253.933 605.658C253.288 605.147 252.755 604.919 252.222 604.692C252.222 604.692 252.186 604.81 252.197 604.506C251.82 603.785 251.433 603.366 251.046 602.948C251.046 602.948 250.996 602.989 250.98 602.686C250.718 602.08 250.473 601.777 250.228 601.474C250.228 601.474 250.343 601.22 250.29 600.711C250.175 599.165 250.113 598.129 250.051 597.093C250.051 597.093 250.219 596.691 250.438 596.255C250.805 595.222 250.953 594.625 251.101 594.028C251.101 594.028 251.025 594.022 251.277 593.953C251.693 593.584 251.857 593.284 252.022 592.985Z" fill="#5C594B"/>
<path d="M254.25 606.188C284.961 605.923 315.864 606.002 346.767 606.076C352.362 606.089 357.958 606.078 364.161 606.078C362.925 612.187 361.847 617.517 360.532 623.171C360.665 620.076 360.632 616.55 361.508 613.267C362.578 609.253 361.699 607.899 357.418 607.915C325.476 608.032 293.532 608.007 261.59 607.913C259.206 607.906 256.825 607.013 254.25 606.188Z" fill="#E4CD43"/>
<path d="M261.747 533.827C264.618 530.162 267.952 529.422 271.681 531.404C275.175 533.261 275.557 536.586 275.016 540.063C274.44 543.775 271.809 545.384 268.388 545.735C262.584 546.33 259.523 541.067 261.747 533.827Z" fill="#5D5A4A"/>
<path d="M371.852 564.245C370.486 572.754 368.8 581.464 366.571 590.589C331.097 591.013 296.165 591.008 261.234 591.066C259.315 591.069 257.397 591.601 255.479 591.886C254.868 591.931 254.257 591.975 253.339 592.051C254.795 591.391 256.555 590.102 258.321 590.096C292.079 589.974 325.838 589.887 359.595 590.129C364.649 590.165 366.498 588.706 367.194 583.736C368.104 577.23 370.038 570.868 371.852 564.245Z" fill="#E4CD43"/>
<path d="M384.034 591.192C383.782 589.554 383.073 587.831 383.359 586.294C384.492 580.21 385.937 574.183 387.511 567.817C386.707 574.774 385.659 582.05 384.513 590.007C386.264 590.007 388.032 590.007 389.799 590.007C410.249 590.006 430.698 589.968 451.147 590.067C452.973 590.076 454.794 590.983 456.726 591.869C456.243 592.148 455.652 592.03 454.391 591.632C430.493 591.298 407.263 591.245 384.034 591.192Z" fill="#E4CD43"/>
<path d="M379.648 606.45C380.942 606.035 382.677 605.068 384.416 605.059C405.535 604.953 426.654 605.025 447.773 604.944C450.556 604.933 453.337 604.324 456.539 603.977C454.571 604.699 452.189 606.055 449.795 606.077C426.561 606.293 403.326 606.286 379.648 606.45Z" fill="#655B27"/>
<path d="M388.265 565.75C391.043 551.65 394.129 537.349 397.477 522.749C397.151 526.496 396.819 530.599 395.928 534.577C393.608 544.931 391.042 555.229 388.265 565.75Z" fill="#E4CD43"/>
<path d="M400.105 512.719C399.813 510.245 399.863 507.619 399.873 504.557C403.507 506.684 402.156 509.612 400.105 512.719Z" fill="#E4CD43"/>
<path d="M398.203 520.778C398.35 518.448 398.82 515.919 399.552 513.126C399.384 515.435 398.955 518.008 398.203 520.778Z" fill="#E4CD43"/>
<path d="M268.844 860.028C268.768 859.664 268.711 859.305 268.792 859.143C269.633 859.895 270.394 860.81 271.155 861.724C270.745 862.002 270.336 862.279 269.926 862.557C269.591 861.835 269.256 861.114 268.844 860.028Z" fill="#FFDF1B"/>
<path d="M458.419 601.847C458.118 600.218 458.096 598.319 458.124 595.936C458.348 597.494 458.523 599.535 458.419 601.847Z" fill="#655B27"/>
<path d="M249.765 597.275C250.113 598.129 250.175 599.165 250.218 600.592C249.959 599.808 249.719 598.633 249.765 597.275Z" fill="#E4CD43"/>
<path d="M250.819 594.203C250.953 594.625 250.805 595.222 250.438 596.037C250.325 595.629 250.432 595.003 250.819 594.203Z" fill="#E4CD43"/>
<path d="M252.295 605.01C252.755 604.919 253.288 605.147 253.972 605.629C253.538 605.698 252.953 605.513 252.295 605.01Z" fill="#E4CD43"/>
<path d="M251.045 603.267C251.433 603.366 251.82 603.785 252.256 604.488C251.885 604.377 251.465 603.982 251.045 603.267Z" fill="#E4CD43"/>
<path d="M457.228 603.826C457.18 603.412 457.397 602.866 457.902 602.213C457.957 602.635 457.726 603.164 457.228 603.826Z" fill="#655B27"/>
<path d="M250.233 601.786C250.473 601.777 250.718 602.08 251.011 602.676C250.784 602.68 250.511 602.389 250.233 601.786Z" fill="#E4CD43"/>
<path d="M458.319 593.859C458.176 593.98 457.872 593.64 457.822 593.419C458.001 593.377 458.231 593.557 458.319 593.859Z" fill="#E4CD43"/>
<path d="M457.781 592.932C457.546 593.03 457.249 592.858 456.865 592.437C457.092 592.347 457.406 592.505 457.781 592.932Z" fill="#E4CD43"/>
<path d="M251.779 593.087C251.857 593.284 251.693 593.584 251.289 593.989C251.212 593.792 251.374 593.491 251.779 593.087Z" fill="#E4CD43"/>
<path d="M255.991 591.913C257.397 591.601 259.315 591.069 261.234 591.066C296.165 591.008 331.097 591.013 366.491 590.974C365.573 591.293 364.192 591.947 362.81 591.949C327.374 591.987 291.938 591.958 255.991 591.913Z" fill="#655B27"/>
<path d="M384.358 591.442C407.263 591.245 430.493 591.299 454.088 591.63C431.197 591.836 407.939 591.764 384.358 591.442Z" fill="#655B27"/>
</svg>
