<svg width="1132" height="1600" viewBox="0 0 1132 1600" fill="none" xmlns="http://www.w3.org/2000/svg">
<g clip-path="url(#clip0_21_2)">
<path d="M562.959 387.191C563.402 387.192 563.844 387.193 564.7 387.651C568.868 388.662 572.623 389.216 576.785 389.761C603.56 394.493 628.695 403.09 652.834 414.536C693.947 434.031 729.75 460.686 760.24 494.551C791.852 529.663 815.479 569.44 831.059 613.997C841.991 645.263 848.309 677.428 850.302 710.539C852.428 745.859 849.484 780.65 841.443 815.062C833.044 851.007 819.221 884.755 800.221 916.368C781.643 947.276 758.637 974.506 731.59 998.358C713.282 1014.5 693.322 1028.26 672.156 1040.36C670.494 1041.31 668.486 1043.25 668.296 1044.92C666.979 1056.45 665.531 1068.02 665.215 1079.61C664.719 1097.75 665.171 1115.92 665.034 1134.08C664.989 1140.06 664.898 1146.12 663.897 1151.98C661.337 1166.98 655.773 1180.73 645.01 1192.19C644.523 1192.57 644.316 1192.88 644.114 1193.13C644.119 1193.07 644.223 1193.12 643.937 1193.21C643.422 1193.83 643.192 1194.35 642.872 1195.13C642.504 1195.59 642.225 1195.79 641.64 1196.02C640.937 1196.45 640.539 1196.86 640.129 1197.19C640.115 1197.12 640.259 1197.14 639.961 1197.23C639.438 1197.88 639.214 1198.43 638.995 1198.99C639 1199 638.982 1198.99 638.671 1199.01C637.949 1199.44 637.536 1199.84 637.145 1200.19C637.166 1200.14 637.251 1200.22 636.885 1200.18C635.712 1201.14 634.905 1202.14 634.073 1203.11C634.049 1203.08 634.128 1203.06 633.865 1203.16C633.422 1203.57 633.241 1203.88 632.945 1204.41C632.588 1204.87 632.298 1204.99 631.653 1205.03C630.931 1205.43 630.515 1205.82 630.082 1206.16C630.065 1206.11 630.17 1206.11 629.912 1206.18C629.445 1206.52 629.236 1206.8 629.021 1207.04C629.014 1207 629.071 1207.05 628.708 1207.03C627.582 1207.71 626.82 1208.4 626.029 1209.06C626.001 1209.03 626.084 1209.06 625.717 1209.07C623.921 1210.07 622.491 1211.06 621.043 1212.03C621.026 1212.02 621.025 1212.06 620.72 1212.06C619.958 1212.41 619.502 1212.76 619.028 1213.06C619.011 1213.01 619.081 1213.08 618.77 1213.07C617.99 1213.4 617.522 1213.74 617.023 1214.05C616.992 1214.02 617.059 1214.07 616.656 1214.05C614.877 1214.74 613.502 1215.45 612.088 1216.17C612.049 1216.16 612.116 1216.12 611.812 1216.1C611.006 1216.35 610.504 1216.64 609.835 1217C609.667 1217.09 609.291 1217.08 608.851 1217.05C605.309 1218.02 602.207 1219.03 599.08 1220.07C599.056 1220.11 598.969 1220.09 598.507 1220.06C575.697 1220.02 553.349 1220.01 530.941 1219.65C529.687 1218.52 528.565 1217.58 527.285 1216.97C515.425 1211.33 504.05 1205.3 495.226 1194.94C480.866 1178.06 473.457 1158.81 473.037 1136.81C472.827 1125.83 473.016 1114.85 472.981 1103.87C472.976 1102.41 472.709 1100.96 472.563 1099.5C472.056 1099.49 471.549 1099.49 471.041 1099.48C470.695 1101.34 470.215 1103.18 470.026 1105.06C469.263 1112.61 468.687 1120.19 467.797 1127.74C467.624 1129.2 466.354 1130.54 465.568 1131.49C468.796 1101.79 472.629 1072.58 475.145 1043.26C478.061 1009.28 480.002 975.213 481.998 941.162C482.885 926.045 483.009 910.877 483.23 895.728C483.501 877.086 483.673 858.439 483.549 839.797C483.506 833.396 480.334 830.745 474.591 830.923C469.189 831.089 466.4 834.456 466.402 840.683C466.406 856.987 466.567 873.294 466.318 889.595C465.994 910.74 466.057 931.928 464.665 953.013C461.926 994.509 458.437 1035.96 454.956 1077.4C453.915 1089.8 451.872 1102.11 450.204 1113.97C450.192 1108.83 449.902 1104.14 450.414 1099.54C451.36 1091.05 453.018 1082.64 453.938 1074.15C455.147 1062.98 455.93 1051.77 456.895 1040.58C457.143 1037.72 457.294 1035.17 454.101 1033.32C449.813 1030.85 445.754 1027.92 441.825 1024.89C427.545 1013.87 412.622 1003.54 399.352 991.405C386.795 979.923 375.415 966.989 364.624 953.789C355.111 942.152 346.201 929.8 338.7 916.798C329.291 900.491 321.432 883.275 313.234 866.292C310.073 859.743 307.103 852.943 305.289 845.936C300.691 828.17 295.914 810.371 292.871 792.305C289.856 774.412 287.664 756.198 287.35 738.085C287.051 720.802 289.51 703.458 291.011 686.163C291.768 677.439 292.454 668.628 294.277 660.092C298.837 638.74 305.222 617.852 313.436 597.635C322.243 575.958 332.751 554.986 346.068 535.74C360.751 514.519 376.708 494.308 395.697 476.497C411.62 461.561 428.625 448.11 446.673 436.071C472.75 418.677 501.31 406.245 531.241 397.019C536.912 395.271 542.815 394.283 548.511 392.606C552.756 391.357 556.841 389.563 561.277 387.99C562.024 387.709 562.492 387.45 562.959 387.191ZM567.331 971.954C569.838 955.18 572.112 938.366 574.902 921.639C580.812 886.208 587.021 850.827 593.021 815.411C593.702 811.398 595.173 809.68 599.74 809.729C624.229 809.997 648.722 809.865 673.214 809.836C680.02 809.828 683.061 807.149 683.026 801.376C682.992 795.704 679.789 792.92 673.173 792.916C650.181 792.901 627.188 792.909 604.196 792.909C602.249 792.909 600.303 792.909 598.246 792.909C598.175 791.611 597.996 790.934 598.125 790.321C602.149 771.115 606.151 751.905 610.272 732.72C612.508 722.315 615.039 711.973 617.265 701.565C618.319 696.639 615.58 692.72 610.68 691.522C605.907 690.356 602.456 692.501 600.983 697.584C600.381 699.66 599.741 701.732 599.289 703.843C593.408 731.32 587.441 758.779 581.8 786.305C580.742 791.469 578.769 793.104 573.315 793.062C535.663 792.766 498.007 792.929 460.353 792.851C456.016 792.842 452.366 793.585 450.607 798.073C448.135 804.378 452.224 809.829 459.563 809.837C496.384 809.873 533.206 809.857 570.027 809.86C572.16 809.86 574.292 809.86 576.304 809.86C576.5 810.69 576.684 811.023 576.633 811.313C571.751 838.813 566.482 866.251 562.054 893.823C557.229 923.867 552.857 953.993 548.887 984.163C544.851 1014.83 541.405 1045.58 537.983 1076.32C536.271 1091.7 535.088 1107.14 533.846 1122.56C532.162 1143.46 530.58 1164.37 529.109 1185.28C528.69 1191.23 531.903 1195.11 536.921 1195.48C541.84 1195.85 545.606 1192.14 546.059 1186.35C548.405 1156.32 550.546 1126.28 553.117 1096.28C554.863 1075.89 557.001 1055.53 559.327 1035.21C561.708 1014.39 564.531 993.62 567.331 971.954ZM461.482 734.26C463.04 740.051 465.916 742.792 470.373 742.334C474.686 741.892 477.231 739.329 477.867 735.026C478.573 730.244 475.835 726.101 471.532 725.288C466.316 724.303 462.988 727.011 461.482 734.26Z" fill="#F8D91D"/>
<path d="M631.958 1205.01C632.298 1204.99 632.588 1204.87 633.2 1204.31C633.756 1203.67 633.942 1203.37 634.128 1203.06C634.128 1203.06 634.049 1203.08 634.396 1203.05C635.579 1202.09 636.415 1201.15 637.251 1200.22C637.251 1200.22 637.166 1200.14 637.449 1200.18C638.148 1199.81 638.565 1199.4 638.982 1198.99C638.982 1198.99 639 1199 639.272 1198.87C639.783 1198.2 640.021 1197.67 640.259 1197.14C640.259 1197.14 640.115 1197.12 640.429 1197.18C641.144 1196.82 641.546 1196.41 641.947 1196C642.225 1195.79 642.504 1195.59 643.139 1195.01C643.738 1194.14 643.98 1193.63 644.222 1193.12C644.222 1193.12 644.119 1193.07 644.385 1193.05C644.863 1192.73 645.076 1192.43 645.29 1192.12C655.773 1180.73 661.337 1166.98 663.897 1151.98C664.898 1146.12 664.989 1140.06 665.034 1134.08C665.171 1115.92 664.719 1097.75 665.215 1079.61C665.531 1068.02 666.979 1056.45 668.296 1044.92C668.486 1043.25 670.494 1041.31 672.156 1040.36C693.322 1028.26 713.282 1014.5 731.59 998.358C758.636 974.506 781.643 947.276 800.221 916.368C819.221 884.755 833.044 851.007 841.443 815.062C849.484 780.65 852.428 745.859 850.302 710.539C848.309 677.428 841.991 645.263 831.059 613.997C815.479 569.44 791.852 529.663 760.24 494.551C729.75 460.686 693.947 434.031 652.834 414.536C628.695 403.09 603.56 394.493 576.52 389.542C574.557 388.71 573.268 388.088 571.979 387.467C597.73 383.333 623.593 381.931 649.644 383.797C705.545 387.801 757.319 404.524 804.44 434.806C876.977 481.422 925.361 546.521 950.8 628.76C962.721 667.298 967.808 706.879 965.72 747.079C960.401 849.498 919.523 934.977 841.863 1002.4C825.097 1016.95 806.789 1029.42 787.257 1040.02C784.33 1041.61 783.364 1043.56 782.787 1046.89C777.547 1077.21 780.641 1107.74 780.226 1138.15C779.676 1178.44 752.38 1212.57 712.878 1220.65C708.348 1221.57 703.606 1221.76 698.961 1221.77C664.629 1221.87 630.298 1221.84 595.75 1221.63C596.679 1220.97 597.824 1220.53 598.969 1220.09C598.969 1220.09 599.056 1220.11 599.47 1220.09C603.02 1219.07 606.156 1218.08 609.291 1217.08C609.291 1217.08 609.667 1217.09 610.137 1217.03C611.109 1216.69 611.613 1216.41 612.116 1216.12C612.116 1216.12 612.049 1216.16 612.433 1216.16C614.231 1215.46 615.645 1214.77 617.059 1214.07C617.059 1214.07 616.992 1214.02 617.322 1214.04C618.129 1213.73 618.605 1213.4 619.081 1213.08C619.081 1213.08 619.011 1213.01 619.325 1213.04C620.101 1212.73 620.563 1212.39 621.025 1212.06C621.025 1212.06 621.026 1212.02 621.375 1211.99C623.178 1210.99 624.631 1210.03 626.084 1209.06C626.084 1209.06 626.001 1209.03 626.346 1209.03C627.484 1208.37 628.278 1207.71 629.071 1207.05C629.071 1207.05 629.014 1207 629.282 1206.97C629.757 1206.66 629.964 1206.39 630.17 1206.11C630.17 1206.11 630.065 1206.11 630.378 1206.14C631.114 1205.78 631.536 1205.39 631.958 1205.01Z" fill="#6B6A6A"/>
<path d="M465.59 1131.94C466.354 1130.54 467.624 1129.2 467.797 1127.74C468.687 1120.19 469.263 1112.61 470.026 1105.06C470.215 1103.18 470.695 1101.34 471.041 1099.48C471.549 1099.49 472.056 1099.49 472.563 1099.5C472.709 1100.96 472.976 1102.41 472.981 1103.87C473.016 1114.85 472.827 1125.83 473.037 1136.81C473.457 1158.81 480.866 1178.06 495.226 1194.94C504.05 1205.3 515.425 1211.33 527.285 1216.97C528.565 1217.58 529.687 1218.52 530.472 1219.66C498.95 1220.02 467.837 1219.85 436.727 1220.12C427.763 1220.2 419.593 1217.72 411.34 1214.95C410.642 1214.71 409.72 1215.15 408.902 1215.27C407.718 1214.75 406.534 1214.23 404.999 1213.18C404.247 1212.57 403.848 1212.48 403.448 1212.4C403.112 1212.36 402.777 1212.31 402.091 1211.82C394.901 1206.23 388.062 1201.09 381.222 1195.94C379.875 1194.49 378.527 1193.05 377.091 1190.98C376.451 1189.88 375.9 1189.39 375.349 1188.9C374.976 1188.45 374.603 1187.99 374.118 1186.97C373.514 1185.89 373.023 1185.38 372.532 1184.87C372.414 1184.74 372.297 1184.61 372.123 1183.89C371.162 1182.16 370.257 1181.03 369.353 1179.9C369.353 1179.9 369.103 1179.47 369.07 1178.96C368.623 1177.91 368.208 1177.39 367.793 1176.86C367.568 1176.47 367.342 1176.08 367.062 1175.02C366.368 1173.24 365.727 1172.13 365.087 1171.02C364.971 1170.68 364.854 1170.33 364.814 1169.27C364.543 1166.63 364.243 1164.69 363.841 1162.78C362.571 1156.71 360.345 1150.69 360.124 1144.59C358.963 1112.56 361.883 1080.43 358.005 1048.44C357.513 1044.38 356.518 1041.08 352.607 1039.08C348.669 1037.07 344.651 1035.1 341.043 1032.57C327.066 1022.79 312.735 1013.42 299.506 1002.7C287.823 993.227 276.556 982.927 266.688 971.614C254.118 957.204 242.634 941.76 231.654 926.081C224.209 915.449 217.976 903.882 212.044 892.302C206.21 880.912 201.183 869.084 196.292 857.245C193.099 849.516 190.415 841.527 188.169 833.469C185.562 824.115 183.247 814.633 181.595 805.069C179.326 791.939 177.883 778.667 175.891 765.486C175.45 762.569 174.188 759.776 173.304 756.926C173.25 756.497 173.195 756.067 173.424 754.987C173.801 753.349 173.948 752.364 173.98 751.376C174.659 730.667 175.209 709.954 176.073 689.254C176.291 684.031 177.298 678.809 178.312 673.659C180.053 664.816 181.863 655.975 184.056 647.236C186.173 638.804 188.741 630.481 191.238 622.149C193.685 613.986 196.294 605.872 198.831 597.736C199.003 597.061 199.174 596.385 199.814 595.285C200.853 593.236 201.423 591.611 201.994 589.987C202.153 589.555 202.312 589.123 202.925 588.252C203.995 586.036 204.609 584.259 205.224 582.482C205.297 582.248 205.371 582.014 205.865 581.366C206.461 580.52 206.638 580.087 206.814 579.654C206.903 579.294 206.992 578.934 207.538 578.238C208.309 576.901 208.623 575.899 208.937 574.897C209.045 574.481 209.154 574.065 209.729 573.276C210.855 571.438 211.514 569.973 212.174 568.507C212.174 568.507 212.356 568.14 212.839 567.886C215.747 563.675 218.289 559.783 220.579 555.748C233.749 532.546 249.537 511.25 267.747 491.807C289.154 468.949 313.076 449.24 340.043 433.028C361.219 420.297 383.045 409.279 406.621 401.99C419.438 398.027 432.426 394.373 445.577 391.81C459.481 389.1 473.67 387.85 487.735 385.966C489.209 385.768 490.683 385.498 492.164 385.428C501.436 384.99 510.743 383.915 519.977 384.354C533.677 385.005 547.326 386.739 560.997 388.012C556.841 389.563 552.756 391.357 548.511 392.606C542.815 394.283 536.912 395.271 531.241 397.019C501.31 406.245 472.75 418.677 446.673 436.071C428.625 448.11 411.62 461.561 395.697 476.497C376.708 494.308 360.751 514.519 346.068 535.74C332.751 554.986 322.243 575.958 313.436 597.635C305.222 617.852 298.837 638.74 294.277 660.092C292.454 668.628 291.768 677.439 291.011 686.163C289.51 703.458 287.051 720.802 287.35 738.085C287.664 756.198 289.856 774.412 292.871 792.305C295.914 810.371 300.691 828.17 305.289 845.936C307.103 852.943 310.073 859.743 313.234 866.292C321.432 883.275 329.291 900.491 338.7 916.798C346.201 929.8 355.111 942.152 364.624 953.789C375.415 966.989 386.795 979.923 399.352 991.405C412.622 1003.54 427.545 1013.87 441.825 1024.89C445.754 1027.92 449.813 1030.85 454.101 1033.32C457.294 1035.17 457.143 1037.72 456.895 1040.58C455.93 1051.77 455.147 1062.98 453.938 1074.15C453.018 1082.64 451.36 1091.05 450.414 1099.54C449.902 1104.14 450.192 1108.83 450.24 1114.23C450.254 1115.32 450.149 1115.66 449.646 1116.09C448.88 1119.97 448.511 1123.77 448.324 1127.75C448.442 1128.27 448.377 1128.59 447.963 1129.13C444.62 1139.14 443.304 1149.14 444.215 1159.36C444.265 1159.92 445.605 1160.37 446.573 1161.02C447.198 1161.77 447.594 1162.36 448.169 1163.21C448.939 1163.61 449.531 1163.75 450.07 1163.9C450.017 1163.9 450.1 1163.84 450.127 1164.21C452.387 1167.04 454.3 1166.47 456.135 1163.86C456.262 1163.77 456.571 1163.84 457 1163.89C459.71 1164.17 461.358 1163.71 460.882 1160.87C460.935 1160.9 460.817 1160.91 461.128 1160.73C461.568 1159.85 461.696 1159.16 461.738 1158.37C461.652 1158.27 461.781 1158.04 462.151 1157.86C462.927 1157.19 463.64 1156.72 463.692 1156.19C464.466 1148.28 465.153 1140.35 465.74 1132.34C465.62 1132.25 465.59 1131.94 465.59 1131.94Z" fill="#FFDF1A"/>
<path d="M510.88 263.192C509.996 256.342 509.151 249.932 508.207 242.767C536.132 239.269 563.735 235.812 591.768 232.301C597.345 264.862 594.795 295.2 572.233 321.283C552.121 344.534 526.275 354.018 496.085 354.338C450.855 354.818 404.401 317.347 395.627 268.163C385.843 213.324 417.954 168.135 455.233 151.86C498.094 133.146 540.426 140.432 575.411 173.926C569.215 181.592 562.986 189.299 556.858 196.881C550.098 191.722 543.969 186.31 537.157 181.97C500.528 158.634 447.163 174.153 429.942 219.647C411.877 267.371 442.042 317.499 492.436 324.846C523.947 329.441 556.178 306.186 561.604 274.862C562.08 272.116 562.001 269.274 562.243 265.465C545.341 267.521 528.962 269.513 511.904 271.588C511.554 268.76 511.237 266.196 510.88 263.192Z" fill="#6B6B6B"/>
<path d="M459.424 1329C444.354 1326.11 435.695 1315.51 436.146 1300.77C436.257 1297.13 436.628 1293.44 437.404 1289.88C440.352 1276.37 450.727 1268.13 464.6 1268.12C516.564 1268.1 568.528 1268.12 620.492 1268.12C639.646 1268.12 658.825 1268.74 677.946 1267.95C697.769 1267.13 712.203 1281.43 707.913 1304.21C704.725 1321.13 692.999 1329.38 677.722 1329.3C606.773 1328.93 535.82 1329.14 464.869 1329.14C463.204 1329.14 461.54 1329.07 459.424 1329Z" fill="#6B6B6B"/>
<path d="M639.397 352.556C634.17 350.74 629.304 349.085 623.971 347.271C646.007 283.03 667.942 219.081 690.176 154.262C699.93 157.56 709.408 160.764 719.519 164.182C710.898 189.381 702.419 214.165 693.695 239.666C721.361 249.184 748.767 258.612 776.518 268.158C785.178 242.963 793.703 218.164 802.438 192.752C812.216 196.107 821.688 199.356 831.741 202.805C809.623 267.297 787.687 331.254 765.526 395.869C755.914 392.583 746.437 389.343 736.226 385.853C746.552 355.653 756.729 325.89 767.032 295.755C739.222 286.2 712.073 276.872 684.221 267.303C673.877 297.396 663.65 327.148 653.29 357.286C648.515 355.673 644.137 354.195 639.397 352.556Z" fill="#6B6B6B"/>
<path d="M952.327 310.646C948.007 307.838 943.986 305.235 939.692 302.454C907.588 351.156 875.733 399.479 843.49 448.389C834.888 442.733 826.498 437.218 817.575 431.352C849.657 382.658 881.575 334.213 913.804 285.296C900.805 276.677 888.088 268.244 874.82 259.445C880.086 251.403 885.307 243.43 890.799 235.045C925.513 257.968 959.892 280.67 994.774 303.704C989.385 311.909 984.221 319.77 978.78 328.053C969.78 322.133 961.203 316.491 952.327 310.646Z" fill="#6B6B6B"/>
<path d="M273.899 455.895C272.27 457.088 270.937 458.078 269.152 459.402C228.437 404.961 187.804 350.63 146.918 295.962C155.214 289.749 163.169 283.793 171.747 277.37C206.608 323.968 241.35 370.407 276.518 417.415C292.493 405.478 308.273 393.686 324.497 381.563C330.339 389.362 335.975 396.886 341.969 404.887C319.136 422.003 296.665 438.847 273.899 455.895Z" fill="#6B6B6B"/>
<path d="M651.421 1386.97C641.992 1387.09 633.005 1387.23 624.017 1387.23C582.228 1387.26 540.436 1386.99 498.651 1387.38C484.199 1387.51 475.332 1375.7 475.923 1365C476.588 1352.94 485.825 1344.06 498.206 1344.06C547.487 1344.03 596.769 1344.03 646.05 1344.05C658.085 1344.06 667.159 1351.76 668.604 1363.08C670 1374 663.167 1383.74 651.421 1386.97Z" fill="#6B6B6B"/>
<path d="M279.054 230.976C276.249 225.283 273.587 219.934 270.697 214.123C279.978 209.531 288.999 205.069 298.501 200.368C328.648 261.472 358.585 322.15 388.795 383.381C379.42 388.051 370.431 392.53 361.019 397.218C333.639 341.704 306.419 286.512 279.054 230.976Z" fill="#6B6B6B"/>
<path d="M565.031 1457.29C552.502 1453.13 546.019 1444.29 545.224 1431.99C544.468 1420.3 549.629 1411.01 560.241 1405.36C575.492 1397.25 595.231 1406.77 598.846 1423.87C603.261 1444.76 586.304 1461.79 565.031 1457.29Z" fill="#6B6B6B"/>
<path d="M173.191 757.384C174.188 759.776 175.45 762.569 175.891 765.486C177.884 778.667 179.326 791.939 181.595 805.069C183.247 814.633 185.562 824.115 188.169 833.469C190.415 841.527 193.1 849.516 196.292 857.245C201.183 869.084 206.21 880.912 212.044 892.302C217.977 903.882 224.209 915.449 231.654 926.081C242.634 941.76 254.118 957.204 266.688 971.614C276.556 982.927 287.823 993.227 299.506 1002.7C312.735 1013.42 327.066 1022.79 341.043 1032.57C344.651 1035.1 348.669 1037.07 352.607 1039.08C356.518 1041.08 357.514 1044.38 358.005 1048.44C361.883 1080.43 358.963 1112.56 360.124 1144.59C360.345 1150.69 362.571 1156.71 363.841 1162.78C364.243 1164.69 364.543 1166.63 364.794 1169C362.614 1162.55 359.975 1155.77 358.615 1148.74C357.458 1142.76 357.517 1136.5 357.485 1130.36C357.372 1109.21 357.667 1088.06 357.345 1066.91C357.236 1059.82 355.952 1052.72 354.74 1045.7C354.429 1043.9 352.692 1041.79 351.031 1040.86C318.562 1022.63 289.729 999.845 264.498 972.469C243.186 949.344 225.561 923.663 211.119 895.765C194.395 863.459 183.049 829.321 177.032 793.485C175.056 781.714 174.359 769.728 173.191 757.384Z" fill="#F6E04F"/>
<path d="M561.277 387.99C547.327 386.739 533.677 385.005 519.977 384.354C510.743 383.915 501.437 384.99 492.165 385.428C490.683 385.498 489.21 385.768 487.735 385.966C473.67 387.85 459.481 389.1 445.577 391.81C432.426 394.373 419.438 398.027 406.621 401.99C383.045 409.279 361.219 420.297 340.043 433.028C313.076 449.24 289.154 468.949 267.747 491.807C249.538 511.25 233.749 532.546 220.579 555.748C218.289 559.783 215.747 563.675 212.991 567.748C215.851 561.511 218.68 554.943 222.297 548.841C236.7 524.539 253.909 502.319 273.843 482.334C303.009 453.093 336.326 429.643 373.918 412.401C399.442 400.693 426.059 392.311 453.686 387.443C481.321 382.574 509.222 381.18 537.222 383.368C545.645 384.026 553.998 385.573 562.672 386.952C562.492 387.45 562.024 387.709 561.277 387.99Z" fill="#F6E049"/>
<path d="M409.025 1215.58C409.72 1215.15 410.642 1214.71 411.34 1214.95C419.593 1217.72 427.764 1220.2 436.727 1220.12C467.837 1219.85 498.951 1220.02 530.531 1220.01C553.349 1220.01 575.697 1220.02 598.508 1220.06C597.824 1220.53 596.679 1220.97 595.284 1221.61C576.438 1221.86 557.842 1221.88 539.247 1221.97C508.495 1222.14 477.742 1222.46 446.99 1222.47C439.718 1222.47 432.365 1221.99 425.199 1220.82C419.726 1219.93 414.489 1217.59 409.025 1215.58Z" fill="#F6DF49"/>
<path d="M198.519 597.889C196.294 605.872 193.686 613.986 191.239 622.149C188.741 630.481 186.173 638.804 184.056 647.236C181.863 655.974 180.053 664.816 178.312 673.659C177.298 678.809 176.291 684.031 176.073 689.254C175.209 709.954 174.659 730.667 173.98 751.375C173.948 752.364 173.801 753.348 173.463 754.663C172.81 743.726 171.823 732.445 172.147 721.202C172.506 708.75 173.27 696.201 175.292 683.931C178.125 666.738 181.694 649.611 186.075 632.748C189.146 620.926 194.096 609.593 198.519 597.889Z" fill="#F6E04F"/>
<path d="M381.234 1196.27C388.062 1201.09 394.901 1206.23 401.869 1211.69C393.502 1209 387.187 1203.05 381.234 1196.27Z" fill="#F6E04A"/>
<path d="M571.552 387.376C573.268 388.088 574.557 388.71 576.112 389.551C572.623 389.216 568.868 388.662 565.016 387.757C566.987 387.366 569.057 387.326 571.552 387.376Z" fill="#F6E049"/>
<path d="M204.938 582.612C204.609 584.259 203.995 586.036 203.129 587.971C203.469 586.334 204.06 584.538 204.938 582.612Z" fill="#F6E04F"/>
<path d="M201.669 590.069C201.423 591.611 200.853 593.236 200.012 594.996C200.276 593.472 200.809 591.812 201.669 590.069Z" fill="#F6E04F"/>
<path d="M211.863 568.558C211.514 569.972 210.855 571.438 209.92 573.013C210.28 571.618 210.916 570.113 211.863 568.558Z" fill="#F6E04F"/>
<path d="M369.297 1180.24C370.257 1181.03 371.162 1182.16 372.036 1183.64C371.084 1182.85 370.163 1181.71 369.297 1180.24Z" fill="#F6E04F"/>
<path d="M364.901 1171.23C365.727 1172.13 366.368 1173.24 366.999 1174.68C366.232 1173.82 365.474 1172.63 364.901 1171.23Z" fill="#F6E04F"/>
<path d="M208.623 575.011C208.623 575.899 208.31 576.901 207.677 577.995C207.676 577.1 207.993 576.113 208.623 575.011Z" fill="#F6E04F"/>
<path d="M372.466 1185.17C373.023 1185.38 373.514 1185.89 374.008 1186.69C373.474 1186.48 372.937 1185.97 372.466 1185.17Z" fill="#F6E04F"/>
<path d="M367.659 1177.13C368.208 1177.39 368.623 1177.91 369.023 1178.71C368.514 1178.46 368.02 1177.93 367.659 1177.13Z" fill="#F6E04F"/>
<path d="M375.318 1189.21C375.9 1189.39 376.451 1189.88 377.01 1190.66C376.44 1190.48 375.864 1190 375.318 1189.21Z" fill="#F6E04F"/>
<path d="M206.56 579.746C206.638 580.087 206.462 580.52 206.066 581.057C206 580.72 206.152 580.279 206.56 579.746Z" fill="#F6E04F"/>
<path d="M403.63 1212.63C403.848 1212.48 404.247 1212.57 404.773 1212.95C404.537 1213.11 404.174 1212.99 403.63 1212.63Z" fill="#F6E04A"/>
<path d="M567.245 972.392C564.531 993.62 561.708 1014.39 559.327 1035.21C557.001 1055.53 554.863 1075.89 553.117 1096.28C550.546 1126.28 548.405 1156.32 546.059 1186.35C545.606 1192.14 541.84 1195.85 536.921 1195.48C531.903 1195.11 528.69 1191.23 529.109 1185.28C530.58 1164.37 532.162 1143.46 533.846 1122.56C535.088 1107.14 536.271 1091.7 537.983 1076.32C541.405 1045.58 544.851 1014.83 548.887 984.163C552.857 953.993 557.229 923.867 562.054 893.823C566.482 866.25 571.751 838.813 576.633 811.313C576.684 811.023 576.5 810.69 576.304 809.86C574.292 809.86 572.16 809.86 570.027 809.86C533.206 809.857 496.384 809.873 459.563 809.836C452.224 809.829 448.135 804.378 450.607 798.072C452.366 793.585 456.016 792.842 460.353 792.851C498.007 792.929 535.663 792.765 573.315 793.061C578.769 793.104 580.742 791.469 581.8 786.305C587.441 758.779 593.408 731.32 599.289 703.843C599.741 701.732 600.381 699.66 600.982 697.584C602.456 692.501 605.907 690.356 610.68 691.522C615.58 692.72 618.319 696.639 617.265 701.565C615.039 711.972 612.508 722.314 610.272 732.72C606.151 751.905 602.149 771.115 598.125 790.32C597.996 790.934 598.175 791.611 598.246 792.909C600.303 792.909 602.249 792.909 604.196 792.909C627.188 792.909 650.181 792.901 673.173 792.916C679.789 792.92 682.992 795.704 683.026 801.376C683.061 807.149 680.02 809.828 673.214 809.836C648.722 809.865 624.229 809.997 599.74 809.729C595.173 809.679 593.701 811.397 593.021 815.411C587.021 850.827 580.812 886.208 574.902 921.639C572.112 938.366 569.838 955.18 567.245 972.392Z" fill="#5D5A4B"/>
<path d="M447.99 1162.95C447.594 1162.36 447.198 1161.77 446.478 1160.63C445.924 1157.19 445.275 1154.25 445.543 1151.41C446.254 1143.89 447.362 1136.42 448.312 1128.92C448.377 1128.59 448.442 1128.26 448.611 1127.42C449.158 1123.27 449.601 1119.64 450.043 1116C450.149 1115.66 450.254 1115.32 450.324 1114.72C451.872 1102.11 453.915 1089.8 454.956 1077.4C458.437 1035.96 461.926 994.509 464.665 953.013C466.057 931.928 465.994 910.74 466.318 889.594C466.567 873.294 466.406 856.987 466.402 840.683C466.4 834.456 469.189 831.089 474.591 830.922C480.335 830.745 483.506 833.396 483.549 839.796C483.673 858.439 483.502 877.086 483.23 895.728C483.009 910.877 482.885 926.045 481.998 941.162C480.002 975.212 478.061 1009.28 475.145 1043.26C472.629 1072.58 468.796 1101.79 465.568 1131.49C465.59 1131.94 465.62 1132.25 465.46 1132.67C464.128 1141.41 462.954 1149.73 461.781 1158.04C461.781 1158.04 461.652 1158.27 461.485 1158.61C461.151 1159.6 460.984 1160.26 460.817 1160.91C460.817 1160.91 460.935 1160.9 460.578 1160.98C459.004 1161.98 457.788 1162.91 456.571 1163.84C456.571 1163.84 456.262 1163.77 455.712 1163.83C453.475 1163.88 451.788 1163.86 450.1 1163.84C450.1 1163.84 450.017 1163.9 449.888 1163.64C449.169 1163.24 448.579 1163.1 447.99 1162.95Z" fill="#5C5A4B"/>
<path d="M461.446 733.892C462.988 727.011 466.316 724.303 471.532 725.288C475.835 726.101 478.573 730.244 477.867 735.026C477.231 739.329 474.686 741.891 470.373 742.334C465.916 742.792 463.04 740.051 461.446 733.892Z" fill="#615C44"/>
<path d="M608.851 1217.05C606.156 1218.08 603.02 1219.07 599.495 1220.05C602.207 1219.03 605.309 1218.02 608.851 1217.05Z" fill="#F6DF49"/>
<path d="M616.656 1214.05C615.645 1214.77 614.231 1215.46 612.472 1216.16C613.502 1215.45 614.877 1214.74 616.656 1214.05Z" fill="#F6DF49"/>
<path d="M625.717 1209.07C624.631 1210.03 623.178 1210.99 621.393 1212C622.491 1211.06 623.921 1210.07 625.717 1209.07Z" fill="#F6DF49"/>
<path d="M636.885 1200.18C636.415 1201.15 635.579 1202.08 634.42 1203.08C634.905 1202.14 635.712 1201.14 636.885 1200.18Z" fill="#F6DF49"/>
<path d="M628.708 1207.03C628.278 1207.71 627.485 1208.37 626.375 1209.06C626.82 1208.4 627.582 1207.71 628.708 1207.03Z" fill="#F6DF49"/>
<path d="M631.653 1205.03C631.536 1205.39 631.114 1205.78 630.396 1206.19C630.515 1205.82 630.931 1205.43 631.653 1205.03Z" fill="#F6DF49"/>
<path d="M638.672 1199.01C638.565 1199.4 638.148 1199.81 637.428 1200.23C637.536 1199.84 637.949 1199.44 638.672 1199.01Z" fill="#F6DF49"/>
<path d="M639.961 1197.23C640.021 1197.67 639.783 1198.2 639.267 1198.86C639.214 1198.43 639.438 1197.88 639.961 1197.23Z" fill="#F6DF49"/>
<path d="M620.72 1212.06C620.563 1212.39 620.101 1212.73 619.342 1213.08C619.502 1212.76 619.958 1212.41 620.72 1212.06Z" fill="#F6DF49"/>
<path d="M618.77 1213.07C618.605 1213.4 618.129 1213.73 617.353 1214.07C617.522 1213.74 617.991 1213.4 618.77 1213.07Z" fill="#F6DF49"/>
<path d="M641.641 1196.02C641.546 1196.41 641.145 1196.82 640.443 1197.25C640.54 1196.86 640.937 1196.45 641.641 1196.02Z" fill="#F6DF49"/>
<path d="M611.812 1216.1C611.613 1216.41 611.11 1216.69 610.304 1216.94C610.504 1216.64 611.006 1216.35 611.812 1216.1Z" fill="#F6DF49"/>
<path d="M643.937 1193.21C643.98 1193.63 643.738 1194.14 643.229 1194.76C643.192 1194.35 643.422 1193.83 643.937 1193.21Z" fill="#F6DF49"/>
<path d="M633.865 1203.15C633.942 1203.37 633.756 1203.67 633.315 1204.09C633.241 1203.88 633.422 1203.57 633.865 1203.15Z" fill="#F6DF49"/>
<path d="M629.912 1206.18C629.964 1206.39 629.757 1206.66 629.289 1207.01C629.236 1206.8 629.445 1206.52 629.912 1206.18Z" fill="#F6DF49"/>
<path d="M645.01 1192.19C645.076 1192.43 644.863 1192.73 644.379 1193.11C644.316 1192.88 644.523 1192.57 645.01 1192.19Z" fill="#F6DF49"/>
<path d="M447.963 1129.13C447.362 1136.42 446.254 1143.89 445.543 1151.41C445.274 1154.25 445.923 1157.19 446.249 1160.47C445.605 1160.37 444.265 1159.92 444.215 1159.36C443.304 1149.14 444.62 1139.14 447.963 1129.13Z" fill="#F8D91D"/>
<path d="M462.151 1157.86C462.954 1149.73 464.128 1141.41 465.581 1132.77C465.153 1140.35 464.466 1148.28 463.692 1156.19C463.64 1156.72 462.927 1157.19 462.151 1157.86Z" fill="#F8D91D"/>
<path d="M449.646 1116.09C449.601 1119.64 449.158 1123.27 448.428 1127.23C448.511 1123.77 448.88 1119.97 449.646 1116.09Z" fill="#F8D91D"/>
<path d="M450.127 1164.21C451.788 1163.86 453.475 1163.88 455.585 1163.93C454.3 1166.47 452.388 1167.04 450.127 1164.21Z" fill="#F8D91D"/>
<path d="M457 1163.89C457.787 1162.91 459.004 1161.98 460.525 1160.95C461.358 1163.71 459.71 1164.17 457 1163.89Z" fill="#F8D91D"/>
<path d="M448.169 1163.21C448.579 1163.1 449.169 1163.24 449.941 1163.64C449.531 1163.75 448.939 1163.61 448.169 1163.21Z" fill="#F8D91D"/>
<path d="M461.128 1160.73C460.984 1160.26 461.151 1159.6 461.572 1158.71C461.696 1159.16 461.568 1159.85 461.128 1160.73Z" fill="#F8D91D"/>
</g>
<defs>
<clipPath id="clip0_21_2">
<rect width="1132" height="1600" fill="white"/>
</clipPath>
</defs>
</svg>
